<?xml version="1.0" encoding="UTF-8"?>
<svg width="14px" height="8px" viewBox="0 0 14 8" version="1.1" xmlns="http://www.w3.org/2000/svg" xmlns:xlink="http://www.w3.org/1999/xlink">
    <title>D2BD4A67-555F-42D9-A579-CFCEBDC4DC32</title>
    <g id="Contenedores" stroke="none" stroke-width="1" fill="none" fill-rule="evenodd">
        <g id="Cargo-Details-Upcoming-" transform="translate(-352.000000, -1045.000000)" fill="#FFFF00" fill-rule="nonzero">
            <g id="angle-small-down" transform="translate(359.000000, 1049.000000) rotate(90.000000) translate(-359.000000, -1049.000000) translate(355.000000, 1042.000000)">
                <path d="M10.7092402,3.32989465 C10.5214949,3.11876015 10.265928,3 9.99932062,3 C9.73271328,3 9.47714636,3.11876015 9.28940102,3.32989465 L4.70991961,8.43782586 C4.52217427,8.64896036 4.26660735,8.76772051 4,8.76772051 C3.73339265,8.76772051 3.47782573,8.64896036 3.29008039,8.43782586 L-1.28940102,3.32989465 C-1.47714636,3.11876015 -1.73271328,3 -1.99932062,3 C-2.26592797,3 -2.52149489,3.11876015 -2.70924023,3.32989465 C-3.09691992,3.76489126 -3.09691992,4.46742708 -2.70924023,4.90242369 L1.88024005,10.0215076 C3.05137761,11.3261641 4.94862239,11.3261641 6.11975995,10.0215076 L10.7092402,4.90242369 C11.0969199,4.46742708 11.0969199,3.76489126 10.7092402,3.32989465 Z" id="Path" transform="translate(4.000000, 7.000000) rotate(90.000000) translate(-4.000000, -7.000000) "></path>
            </g>
        </g>
    </g>
</svg>